<svg width="64" height="64" viewBox="0 0 64 64" fill="none" xmlns="http://www.w3.org/2000/svg">
<path d="M9.77257 4.94851C9.77257 3.88104 10.6379 3.01569 11.7054 3.01569C11.7054 3.01569 11.7054 3.01569 11.7054 3.01569C11.7054 3.01569 33.3623 3.01569 35.8656 3.01569C37.9718 3.01569 39.2702 4.38377 39.6293 4.81795C39.6997 4.90313 39.7706 4.9878 39.8487 5.06596L52.2896 17.5069C52.293 17.5102 52.2958 17.513 52.2991 17.5163C52.4016 17.6189 54.2274 19.4718 54.2274 21.3775C54.2274 23.3382 54.2274 59.0675 54.2274 59.0675C54.2274 59.0675 54.2274 59.0675 54.2274 59.0675C54.2274 60.1349 53.3621 61.0003 52.2946 61.0003H11.7054C10.6379 61.0003 9.77257 60.1349 9.77257 59.0675V4.94851Z" fill="#C2C2FF"/>
<path d="M11.7054 3.01569V1.51569C9.80949 1.51569 8.27257 3.05262 8.27257 4.94851V59.0675C8.27257 60.9634 9.80949 62.5003 11.7054 62.5003H52.2946C54.1905 62.5003 55.7274 60.9634 55.7274 59.0675H54.2274C55.7274 59.0675 55.7274 59.0673 55.7274 59.0671V59.0658V59.0638V59.061V59.0573V59.0529V59.0476V59.0416V59.0347V59.0271V59.0187V59.0095V58.9995V58.9887V58.9772V58.9649V58.9518V58.938V58.9234V58.9081V58.8919V58.8751V58.8575V58.8391V58.82V58.8002V58.7796V58.7583V58.7362V58.7134V58.69V58.6657V58.6408V58.6151V58.5888V58.5617V58.5339V58.5054V58.4763V58.4464V58.4158V58.3846V58.3526V58.32V58.2867V58.2527V58.218V58.1827V58.1466V58.11V58.0726V58.0346V57.996V57.9567V57.9167V57.8761V57.8349V57.793V57.7505V57.7073V57.6635V57.6191V57.5741V57.5284V57.4821V57.4352V57.3877V57.3396V57.2909V57.2415V57.1916V57.1411V57.0899V57.0382V56.9859V56.933V56.8796V56.8255V56.7709V56.7157V56.6599V56.6036V56.5467V56.4893V56.4312V56.3727V56.3136V56.2539V56.1937V56.1329V56.0717V56.0098V55.9475V55.8846V55.8212V55.7573V55.6928V55.6278V55.5624V55.4964V55.4299V55.3629V55.2954V55.2274V55.1589V55.0899V55.0204V54.9505V54.88V54.8091V54.7377V54.6658V54.5935V54.5207V54.4474V54.3737V54.2995V54.2249V54.1498V54.0742V53.9982V53.9218V53.8449V53.7676V53.6899V53.6117V53.5332V53.4541V53.3747V53.2949V53.2146V53.1339V53.0528V52.9713V52.8895V52.8072V52.7245V52.6414V52.5579V52.4741V52.3899V52.3052V52.2203V52.1349V52.0492V51.9631V51.8766V51.7898V51.7026V51.615V51.5272V51.4389V51.3503V51.2614V51.1721V51.0825V50.9926V50.9023V50.8117V50.7208V50.6296V50.538V50.4462V50.354V50.2615V50.1687V50.0756V49.9822V49.8885V49.7945V49.7003V49.6057V49.5109V49.4157V49.3203V49.2247V49.1287V49.0325V48.936V48.8393V48.7423V48.645V48.5475V48.4498V48.3518V48.2535V48.155V48.0563V47.9574V47.8582V47.7588V47.6591V47.5593V47.4592V47.3589V47.2584V47.1577V47.0568V46.9556V46.8543V46.7528V46.6511V46.5492V46.4471V46.3448V46.2424V46.1397V46.0369V45.934V45.8308V45.7275V45.624V45.5204V45.4166V45.3127V45.2086V45.1043V45V44.8954V44.7908V44.686V44.5811V44.476V44.3708V44.2655V44.1601V44.0546V43.9489V43.8432V43.7373V43.6313V43.5253V43.4191V43.3129V43.2065V43.1001V42.9936V42.887V42.7803V42.6735V42.5667V42.4598V42.3528V42.2458V42.1387V42.0316V41.9244V41.8172V41.7099V41.6025V41.4951V41.3877V41.2803V41.1728V41.0653V40.9578V40.8502V40.7426V40.635V40.5274V40.4198V40.3122V40.2045V40.0969V39.9893V39.8817V39.7741V39.6665V39.5589V39.4513V39.3438V39.2362V39.1287V39.0213V38.9138V38.8065V38.6991V38.5918V38.4845V38.3773V38.2701V38.163V38.056V37.949V37.8421V37.7352V37.6284V37.5217V37.4151V37.3085V37.202V37.0957V36.9894V36.8832V36.777V36.671V36.5651V36.4593V36.3536V36.248V36.1426V36.0372V35.932V35.8269V35.7219V35.617V35.5123V35.4077V35.3033V35.199V35.0948V34.9908V34.887V34.7833V34.6797V34.5763V34.4731V34.3701V34.2672V34.1645V34.062V33.9596V33.8574V33.7554V33.6536V33.552V33.4506V33.3494V33.2484V33.1476V33.047V32.9466V32.8465V32.7465V32.6468V32.5472V32.448V32.3489V32.2501V32.1515V32.0531V31.955V31.8572V31.7595V31.6622V31.5651V31.4682V31.3716V31.2753V31.1792V31.0834V30.9879V30.8926V30.7977V30.703V30.6086V30.5145V30.4207V30.3271V30.2339V30.141V30.0483V29.956V29.864V29.7723V29.6809V29.5899V29.4991V29.4087V29.3186V29.2289V29.1395V29.0504V28.9617V28.8733V28.7852V28.6975V28.6102V28.5232V28.4366V28.3503V28.2644V28.1789V28.0937V28.0089V27.9245V27.8405V27.7569V27.6736V27.5908V27.5083V27.4262V27.3446V27.2633V27.1825V27.102V27.022V26.9424V26.8632V26.7844V26.706V26.6281V26.5506V26.4735V26.3969V26.3207V26.245V26.1697V26.0949V26.0205V25.9465V25.8731V25.8V25.7275V25.6554V25.5838V25.5127V25.442V25.3718V25.3022V25.2329V25.1642V25.096V25.0283V24.9611V24.8943V24.8281V24.7624V24.6972V24.6325V24.5684V24.5047V24.4416V24.379V24.317V24.2555V24.1945V24.134V24.0741V24.0148V23.9559V23.8977V23.84V23.7828V23.7263V23.6702V23.6148V23.5599V23.5056V23.4519V23.3987V23.3462V23.2942V23.2428V23.192V23.1418V23.0922V23.0432V22.9948V22.947V22.8999V22.8533V22.8074V22.7621V22.7174V22.6733V22.6298V22.587V22.5449V22.5033V22.4625V22.4222V22.3826V22.3437V22.3054V22.2678V22.2308V22.1945V22.1588V22.1239V22.0896V22.056V22.023V21.9908V21.9592V21.9283V21.8981V21.8686V21.8398V21.8118V21.7844V21.7577V21.7317V21.7065V21.6819V21.6581V21.635V21.6126V21.591V21.5701V21.5499V21.5305V21.5118V21.4939V21.4767V21.4602V21.4445V21.4296V21.4154V21.402V21.3894V21.3775C55.7274 19.9859 55.0801 18.7457 54.5554 17.9471C54.0082 17.1143 53.4484 16.5443 53.3599 16.4558L53.3532 16.4491L53.3503 16.4462L40.9094 4.0053C40.8875 3.98337 40.8576 3.94959 40.7852 3.86204C40.3307 3.31239 38.6492 1.51569 35.8656 1.51569H35.8508H35.8354H35.8197H35.8035H35.7869H35.7698H35.7523H35.7344H35.7161H35.6973H35.6782H35.6586H35.6386H35.6182H35.5973H35.5761H35.5544H35.5324H35.5099H35.487H35.4638H35.4401H35.416H35.3915H35.3667H35.3414H35.3158H35.2898H35.2633H35.2365H35.2093H35.1818H35.1538H35.1255H35.0968H35.0677H35.0382H35.0084H34.9782H34.9477H34.9167H34.8854H34.8538H34.8218H34.7894H34.7567H34.7236H34.6902H34.6564H34.6222H34.5878H34.5529H34.5178H34.4823H34.4464H34.4102H34.3737H34.3368H34.2996H34.2621H34.2243H34.1861H34.1476H34.1088H34.0696H34.0301H33.9904H33.9502H33.9098H33.8691H33.8281H33.7867H33.7451H33.7031H33.6608H33.6183H33.5754H33.5322H33.4888H33.445H33.401H33.3566H33.312H33.2671H33.2219H33.1764H33.1306H33.0846H33.0383H32.9917H32.9448H32.8977H32.8503H32.8026H32.7546H32.7064H32.6579H32.6092H32.5602H32.5109H32.4614H32.4116H32.3616H32.3114H32.2608H32.2101H32.1591H32.1078H32.0563H32.0046H31.9526H31.9004H31.848H31.7953H31.7424H31.6892H31.6359H31.5823H31.5285H31.4745H31.4202H31.3658H31.3111H31.2562H31.2011H31.1457H31.0902H31.0345H30.9785H30.9224H30.8661H30.8095H30.7528H30.6958H30.6387H30.5814H30.5239H30.4662H30.4083H30.3502H30.292H30.2335H30.1749H30.1161H30.0571H29.998H29.9387H29.8792H29.8196H29.7597H29.6997H29.6396H29.5793H29.5188H29.4582H29.3974H29.3365H29.2754H29.2142H29.1528H29.0912H29.0296H28.9678H28.9058H28.8437H28.7815H28.7191H28.6566H28.5939H28.5312H28.4683H28.4053H28.3421H28.2788H28.2154H28.1519H28.0883H28.0246H27.9607H27.8967H27.8327H27.7685H27.7042H27.6398H27.5753H27.5107H27.446H27.3812H27.3163H27.2513H27.1862H27.1211H27.0558H26.9905H26.925H26.8595H26.7939H26.7283H26.6625H26.5967H26.5308H26.4648H26.3988H26.3327H26.2665H26.2003H26.134H26.0676H26.0012H25.9347H25.8682H25.8016H25.735H25.6683H25.6016H25.5348H25.468H25.4011H25.3342H25.2673H25.2003H25.1333H25.0662H24.9991H24.932H24.8649H24.7977H24.7305H24.6633H24.5961H24.5288H24.4615H24.3943H24.327H24.2597H24.1923H24.125H24.0577H23.9903H23.923H23.8557H23.7883H23.721H23.6537H23.5863H23.519H23.4517H23.3844H23.3171H23.2499H23.1826H23.1154H23.0482H22.981H22.9139H22.8467H22.7796H22.7126H22.6455H22.5785H22.5116H22.4446H22.3777H22.3109H22.2441H22.1773H22.1106H22.044H21.9773H21.9108H21.8443H21.7778H21.7114H21.6451H21.5788H21.5126H21.4465H21.3804H21.3144H21.2484H21.1826H21.1168H21.0511H20.9854H20.9199H20.8544H20.789H20.7237H20.6585H20.5933H20.5283H20.4634H20.3985H20.3337H20.2691H20.2045H20.1401H20.0757H20.0115H19.9473H19.8833H19.8194H19.7556H19.6919H19.6283H19.5648H19.5015H19.4383H19.3752H19.3122H19.2493H19.1866H19.124H19.0616H18.9993H18.9371H18.8751H18.8131H18.7514H18.6898H18.6283H18.567H18.5058H18.4448H18.3839H18.3232H18.2626H18.2022H18.142H18.0819H18.022H17.9622H17.9026H17.8432H17.784H17.7249H17.666H17.6073H17.5487H17.4904H17.4322H17.3742H17.3164H17.2588H17.2013H17.1441H17.087H17.0302H16.9735H16.9171H16.8608H16.8047H16.7489H16.6932H16.6378H16.5826H16.5275H16.4727H16.4181H16.3638H16.3096H16.2557H16.2019H16.1484H16.0952H16.0421H15.9893H15.9367H15.8844H15.8323H15.7804H15.7288H15.6774H15.6262H15.5753H15.5246H15.4742H15.4241H15.3741H15.3245H15.2751H15.2259H15.177H15.1284H15.08H15.0319H14.9841H14.9365H14.8892H14.8422H14.7954H14.7489H14.7027H14.6568H14.6111H14.5658H14.5207H14.4759H14.4314H14.3871H14.3432H14.2996H14.2562H14.2132H14.1705H14.128H14.0859H14.044H14.0025H13.9613H13.9204H13.8798H13.8395H13.7995H13.7598H13.7205H13.6815H13.6428H13.6044H13.5664H13.5286H13.4913H13.4542H13.4175H13.3811H13.345H13.3093H13.274H13.2389H13.2042H13.1699H13.1359H13.1023H13.069H13.036H13.0035H12.9712H12.9394H12.9079H12.8767H12.8459H12.8155H12.7855H12.7558H12.7265H12.6976H12.669H12.6408H12.613H12.5856H12.5586H12.5319H12.5057H12.4798H12.4543H12.4292H12.4045H12.3802H12.3563H12.3328H12.3097H12.287H12.2647H12.2428H12.2213H12.2002H12.1796H12.1593H12.1395H12.1201H12.1011H12.0825H12.0643H12.0466H12.0293H12.0124H11.996H11.9799H11.9644H11.9492H11.9345H11.9202H11.9064H11.893H11.8801H11.8676H11.8555H11.8439H11.8328H11.8221H11.8119H11.8021H11.7928H11.7839H11.7755H11.7676H11.7601H11.7531H11.7466H11.7406H11.735H11.7299H11.7252H11.7211H11.7174H11.7142H11.7115H11.7093H11.7076H11.7064H11.7056C11.7055 1.51569 11.7054 1.51569 11.7054 3.01569Z" stroke="#C2C2FF" stroke-opacity="0.2" stroke-width="3"/>
<path d="M37.7767 3.41998V17.5053C37.7767 18.5761 38.6387 19.4382 39.7096 19.4382H53.6886C53.3735 18.8016 52.9178 18.1313 52.2918 17.5053L39.7286 4.94204C39.1201 4.17214 38.4434 3.70609 37.7957 3.42071L37.7767 3.41998Z" fill="#C2C2FF"/>
<path d="M39.7096 22.3375C37.0374 22.3375 34.8774 20.1772 34.8774 17.5053V2.99976L35.8656 3.01515C36.9274 3.01515 37.7767 3.41998 37.7767 3.41998V17.5053C37.7767 18.5761 38.6387 19.4382 39.7096 19.4382H53.6886C53.6886 19.4382 54.2274 20.4105 54.2274 21.3769V22.3375H39.7096Z" fill="white"/>
</svg>
